<svg
  width="52"
  height="16"
  viewBox="0 0 52 16"
  fill="none"
  xmlns="http://www.w3.org/2000/svg"
>
      <path
        d="M5.18811 3.56704H7.22642V4.07662H5.74864V4.89194H7.17546V5.40152H5.74864V6.21684H7.22642V6.72642H5.18811V3.56704Z"
        fill="#4B4E53"
      />
      <path
        d="M9.11185 3.56704H9.67239V6.16588H10.9973V6.67546H9.11185V3.56704Z"
        fill="#4B4E53"
      />
      <path
        d="M5.18811 8.50994H5.64673L7.1245 10.4973V8.50994H7.68503V11.6184H7.22642L5.74864 9.58005V11.6184H5.18811V8.50994Z"
        fill="#4B4E53"
      />
      <path
        d="M9.82526 8.50994H10.5387L11.6088 11.6184H10.9973L10.7935 10.9559H9.57047L9.36664 11.6184H8.75515L9.82526 8.50994ZM10.5896 10.3954L10.131 9.07047L9.67239 10.3954H10.5896Z"
        fill="#4B4E53"
      />
      <path
        d="M8.04174 15.0835C3.86321 15.0835 0.5 11.7203 0.5 7.54174C0.5 3.36321 3.86321 0 8.04174 0C12.2203 0 15.5835 3.41417 15.5835 7.54174C15.5835 11.7203 12.2203 15.0835 8.04174 15.0835ZM8.04174 0.611492C4.21991 0.611492 1.11149 3.71991 1.11149 7.54174C1.11149 11.3636 4.21991 14.472 8.04174 14.472C11.8636 14.472 14.972 11.3636 14.972 7.54174C14.972 3.71991 11.8636 0.611492 8.04174 0.611492Z"
        fill="#4B4E53"
      />
      <path
        d="M20.8945 3.75049H25.9903V4.97347H22.3213V6.93025H25.8272V8.15323H22.3213V10.1508H26.0311V11.3738H20.8945V3.75049Z"
        fill="#4B4E53"
      />
      <path
        d="M28.8032 3.75049H30.1892V10.1915H33.4913V11.4145H28.8032V3.75049Z"
        fill="#4B4E53"
      />
      <path
        d="M36.1411 3.75049H37.2418L40.9107 8.68319V3.75049H42.2968V11.4145H41.1961L37.5271 6.40029V11.4145H36.1411V3.75049Z"
        fill="#4B4E53"
      />
      <path
        d="M47.5148 3.75049H49.3493L51.9991 11.4145H50.4908L49.9608 9.78388H46.9849L46.4141 11.4145H44.865L47.5148 3.75049ZM49.5124 8.52013L48.4117 5.2996L47.311 8.52013H49.5124Z"
        fill="#4B4E53"
      />
</svg>